HIERARCHY
ROOT Hips
{
	OFFSET -0.179506 -22.333345 2.821913
	CHANNELS 6 Xposition Yposition Zposition Zrotation Yrotation Xrotation 
	JOINT LeftUpLeg
	{
		OFFSET 6.951974 -9.140623 -0.681533
		CHANNELS 3 Zrotation Yrotation Xrotation
		JOINT LeftLeg
		{
			OFFSET 3.427654 -37.519855 -0.449580
			CHANNELS 3 Zrotation Yrotation Xrotation
			JOINT LeftFoot
			{
				OFFSET -1.359570 -39.796059 -4.369333
				CHANNELS 3 Zrotation Yrotation Xrotation
				JOINT LeftToe
				{
					OFFSET 2.635814 -5.579078 11.928840
					CHANNELS 3 Zrotation Yrotation Xrotation
					End Site
					{
						OFFSET 0.000000 0.000000 0.000000
					}
				}
			}
		}
	}
	JOINT RightUpLeg
	{
		OFFSET -6.767048 -9.052170 -0.431982
		CHANNELS 3 Zrotation Yrotation Xrotation
		JOINT RightLeg
		{
			OFFSET -3.829005 -38.256897 -0.885003
			CHANNELS 3 Zrotation Yrotation Xrotation
			JOINT RightFoot
			{
				OFFSET 1.577377 -39.841461 -4.231180
				CHANNELS 3 Zrotation Yrotation Xrotation
				JOINT RightToe
				{
					OFFSET -2.537174 -4.814398 12.334795
					CHANNELS 3 Zrotation Yrotation Xrotation
					End Site
					{
						OFFSET 0.000000 0.000000 0.000000
					}
				}
			}
		}
	}
	JOINT Spine
	{
		OFFSET -0.253288 10.896323 -2.669631
		CHANNELS 3 Zrotation Yrotation Xrotation
		JOINT Spine1
		{
			OFFSET 0.548704 13.518043 0.109247
			CHANNELS 3 Zrotation Yrotation Xrotation
			JOINT Spine2
			{
				OFFSET 0.145701 5.292222 2.542457
				CHANNELS 3 Zrotation Yrotation Xrotation
				JOINT Neck
				{
					OFFSET -0.277840 21.387037 -4.285703
					CHANNELS 3 Zrotation Yrotation Xrotation
					JOINT Head
					{
						OFFSET 0.515184 6.496960 5.134897
						CHANNELS 3 Zrotation Yrotation Xrotation
						End Site
						{
							OFFSET 0.000000 0.000000 0.000000
						}
					}
				}
				JOINT LeftShoulder
				{
					OFFSET 7.884473 12.174932 -3.408961
					CHANNELS 3 Zrotation Yrotation Xrotation
					JOINT LeftArm
					{
						OFFSET 9.097692 3.046888 -0.886815
						CHANNELS 3 Zrotation Yrotation Xrotation
						JOINT LeftForeArm
						{
							OFFSET 25.961220 -1.277207 -2.745643
							CHANNELS 3 Zrotation Yrotation Xrotation
							JOINT LeftHand
							{
								OFFSET 24.923361 0.898606 -0.117091
								CHANNELS 3 Zrotation Yrotation Xrotation
								End Site
								{
									OFFSET 0.000000 0.000000 0.000000
								}
							}
						}
					}
				}
				JOINT RightShoulder
				{
					OFFSET -8.175920 11.883285 -3.861528
					CHANNELS 3 Zrotation Yrotation Xrotation
					JOINT RightArm
					{
						OFFSET -9.601238 3.255117 -0.914307
						CHANNELS 3 Zrotation Yrotation Xrotation
						JOINT RightForeArm
						{
							OFFSET -25.374195 -1.332924 -2.140099
							CHANNELS 3 Zrotation Yrotation Xrotation
							JOINT RightHand
							{
								OFFSET -25.529810 0.777228 -0.555919
								CHANNELS 3 Zrotation Yrotation Xrotation
								End Site
								{
									OFFSET 0.000000 0.000000 0.000000
								}
							}
						}
					}
				}
			}
		}
	}
}
MOTION
Frames: 15
Frame Time: 0.033333
9.833877 46.140663 90.102676 -114.024280 0.915549 90.638999 5.936136 7.802783 -1.585568 -4.862812 1.349368 18.792021 3.097179 15.608749 -27.102129 nan nan nan -13.938276 -11.107830 -19.913271 4.518722 -7.401032 14.935785 5.817641 -5.968233 2.537030 nan nan nan -1.006048 2.141942 4.625431 4.838240 -1.327792 15.978298 -1.078237 3.496493 -6.976304 6.947656 -20.706914 4.033976 2.987712 -8.550148 11.157177 -26.257607 -1.246393 10.289608 -51.517705 0.714672 18.950901 12.918399 -84.539928 6.144732 -3.581486 -9.271289 -6.219026 24.155575 17.068228 7.542665 20.938581 28.825772 -10.411116 -28.753365 27.192640 -41.879409 -3.047136 1.911882 -10.091643 
9.842876 46.124649 90.050125 -113.937518 0.942831 90.654905 5.959319 7.958258 -1.709348 -4.727959 1.589804 18.930958 2.951674 15.412169 -26.980117 nan nan nan -13.923605 -11.046822 -19.770919 4.597068 -7.467596 15.102476 5.808740 -5.644018 2.033000 nan nan nan -0.798227 2.051449 4.137593 4.844020 -1.498577 16.587758 -1.052314 3.343459 -7.158352 6.353431 -20.672058 5.212733 2.807573 -8.711546 10.220759 -26.278203 -1.434676 10.441773 -51.548276 0.818749 18.639609 14.378580 -84.555705 5.024724 -4.551204 -9.582246 -5.314452 23.553442 17.667116 7.841606 21.179803 29.166006 -10.562989 -28.573165 26.075648 -41.487601 -2.262703 2.258418 -10.419643 
9.813480 46.136417 90.044441 -113.851534 0.872424 90.668541 5.840101 7.820149 -1.643872 -4.442009 0.967806 18.820578 3.053287 15.037422 -26.758064 nan nan nan -13.917813 -11.041270 -19.503462 4.558641 -7.374844 14.988116 5.816715 -5.626717 1.541539 nan nan nan -0.809333 2.098922 4.121712 4.832790 -1.556509 16.471386 -0.989033 3.273481 -7.189805 6.081901 -20.739906 5.627953 2.964373 -8.734237 10.136211 -26.296527 -1.627375 10.611307 -51.460090 0.981527 18.458741 14.337833 -84.593185 5.166914 -4.671846 -9.810785 -5.158809 23.499139 17.916347 7.953242 21.151722 29.136497 -10.595021 -28.322393 25.518790 -41.350757 -2.003095 2.317819 -10.626014 
10.090171 46.016697 90.108696 -113.951321 0.730973 90.696376 5.520972 7.565883 -1.963167 -4.229113 1.211090 18.820609 3.313352 15.023459 -26.754914 nan nan nan -13.825085 -10.654946 -19.863612 4.235008 -7.378401 15.151399 5.937617 -5.924406 1.176297 nan nan nan -0.800344 2.124355 5.383055 4.670509 -1.220684 14.858783 -1.104737 3.282760 -7.017064 6.510543 -20.715549 4.611285 2.819143 -8.781684 11.640612 -26.044208 -1.525201 10.565829 -51.494717 0.855039 18.701201 15.168991 -84.004056 4.553068 -5.978321 -10.728024 -6.000196 24.010682 17.919665 7.344086 21.429198 30.435276 -10.669896 -28.738429 22.696617 -41.533283 -0.715260 2.174069 -9.566001 
10.079434 46.019203 90.140671 -113.861544 0.651551 90.608241 5.395585 7.638657 -1.791914 -4.145734 1.165607 18.592455 3.256907 14.959623 -26.678160 nan nan nan -13.824501 -10.616296 -19.505203 4.140106 -7.304467 14.894371 5.846792 -5.977640 0.745284 nan nan nan -0.783891 2.128308 5.429596 4.683855 -1.284859 14.988903 -1.090915 3.262461 -7.230149 6.436144 -20.772523 4.636759 2.679850 -8.779660 11.649425 -26.120772 -1.548144 10.550029 -51.304224 1.043766 18.906300 14.393508 -83.807349 4.978938 -5.739542 -10.703140 -6.394018 24.029748 18.099651 7.542301 21.195982 30.487582 -10.407138 -28.276854 22.166056 -41.474736 -1.654364 2.381345 -9.670868 
10.065280 46.027271 90.108826 -113.891992 0.502810 90.432210 5.238970 8.251452 -1.588358 -3.853411 1.364031 18.609482 3.160544 14.218483 -26.730526 nan nan nan -13.909002 -10.668574 -19.160724 3.898123 -7.219705 15.077897 5.995541 -5.302609 -0.208478 nan nan nan -0.619948 2.247893 5.271189 4.614258 -1.336564 15.820849 -1.232631 2.831626 -8.346461 5.726037 -19.623983 6.153401 1.722211 -8.875787 11.805345 -26.392749 -1.814537 11.877556 -49.938005 1.420028 18.056712 -10.049605 -84.897340 32.271895 -10.574669 -9.644512 2.989056 24.200596 18.845355 9.025453 20.758141 31.190950 -11.444176 -28.306422 20.296647 -42.004995 -0.154890 2.694593 -8.376940 
10.056643 46.042351 90.113594 -113.831268 0.486159 90.506389 5.199580 8.314252 -1.589844 -3.768151 1.401524 18.468209 2.940406 14.078573 -26.642730 nan nan nan -13.795915 -10.642400 -18.930096 3.834226 -7.177128 14.608002 5.737128 -5.334994 -0.309929 nan nan nan -0.534529 2.196611 5.246234 4.579102 -1.390741 15.675552 -1.250108 2.850015 -8.197013 5.794989 -19.447415 5.954282 1.852234 -8.975482 11.629709 -26.364164 -1.786112 11.746576 -49.987801 1.362986 17.959340 -8.973642 -84.937628 30.835917 -11.036363 -9.609763 3.262913 24.205671 18.944660 8.782529 20.702310 31.511333 -11.442409 -27.856835 19.552269 -41.828182 -0.054510 2.666038 -7.759141 
10.049426 46.069397 90.102180 -113.795156 0.463531 90.652282 5.156094 8.340040 -1.671317 -3.675132 1.388413 18.369460 2.733444 14.042530 -26.610749 nan nan nan -13.693918 -10.637988 -18.774709 3.861291 -7.196123 13.984338 5.577859 -5.436832 -0.219500 nan nan nan -0.468300 2.172857 5.058744 4.584785 -1.477752 15.671867 -1.285667 2.889453 -8.259478 5.669220 -19.444300 6.009355 1.773532 -8.945267 11.703123 -26.368712 -1.803562 11.831432 -49.998865 1.313572 17.808959 -7.397187 -85.023230 29.069407 -12.367856 -9.252530 3.155218 24.245237 19.079075 8.812929 20.642405 31.787379 -11.516861 -27.627836 18.890553 -41.657174 0.358369 2.465275 -7.264258 
10.037391 46.106796 90.096664 -113.758859 0.402173 90.774729 5.077298 8.357346 -1.704046 -3.599587 1.366543 18.190622 2.662657 13.995579 -26.601519 nan nan nan -13.630336 -10.728833 -18.611023 3.916005 -7.074602 13.309959 5.572353 -5.504419 -0.203151 nan nan nan -0.378061 2.253792 4.792363 4.567947 -1.559978 15.870857 -1.332273 2.901959 -8.524447 5.551547 -19.540421 6.076717 1.548867 -8.886454 12.153697 -26.480848 -1.896926 12.083294 -49.953645 1.206998 17.506437 -5.015672 -85.033456 26.447700 -15.789448 -8.403624 3.430104 24.198668 19.201940 9.063250 20.510659 31.369958 -11.518889 -27.540861 18.844879 -41.371639 2.892165 2.112429 -7.164296 
10.017162 46.160236 90.104904 -113.751477 0.320741 90.807391 4.969983 8.359255 -1.592653 -3.529325 1.298762 17.943751 2.638179 14.029724 -26.573127 nan nan nan -13.597787 -10.807220 -18.280195 3.986441 -6.856543 12.525678 5.594929 -5.526216 -0.332888 nan nan nan -0.282181 2.358149 4.662213 4.531368 -1.592406 16.051642 -1.365843 2.878744 -8.793710 5.384002 -19.614545 6.175562 1.398050 -8.667941 12.375742 -26.619901 -1.979062 12.147843 -49.830352 1.220063 17.537069 -4.680850 -84.870813 26.260860 -15.606399 -8.533474 3.556817 24.186282 19.314762 9.060562 20.467249 31.309131 -11.314012 -27.073154 18.527024 -40.956175 2.707044 2.159152 -7.246156 
10.196779 46.342541 90.218147 -113.980272 0.018192 90.569464 4.851997 8.295953 -1.185680 -3.631528 1.483173 17.703525 2.644518 14.027983 -26.465276 nan nan nan -13.547211 -10.527718 -17.899264 3.831183 -6.373366 11.921313 5.562414 -6.014997 -0.297678 nan nan nan -0.830002 2.758605 5.724426 4.495979 -1.364401 14.827225 -1.466002 2.787832 -8.289829 5.564703 -18.879196 4.228543 2.258007 -9.527498 15.580066 -26.029863 -2.117033 12.039716 -49.836602 1.163606 17.997987 -1.861552 -84.928157 23.774429 -15.307939 -8.406814 3.950860 25.238767 19.338188 8.299747 20.230161 31.227249 -10.082037 -26.724206 17.961719 -41.339660 1.750786 1.709280 -7.017011 
10.207480 46.438416 90.236343 -114.070884 -0.051048 90.682106 4.827463 8.315460 -1.163813 -3.652705 1.569301 17.559466 2.787116 14.011181 -26.474689 nan nan nan -13.432648 -10.547060 -17.798016 3.856575 -6.196657 11.432540 5.141247 -6.269231 0.055536 nan nan nan -0.825395 2.880162 5.494661 4.509626 -1.388704 15.080165 -1.477952 2.780927 -8.542429 5.459419 -18.724619 4.301890 2.245391 -9.546472 15.706232 -26.112923 -2.229068 12.181498 -49.828176 1.215805 17.875948 0.317147 -85.037249 21.714686 -15.519428 -8.157924 4.662641 25.292214 19.502536 8.473697 20.272964 31.442903 -10.125376 -26.707158 17.471064 -41.256236 1.528981 1.474999 -6.590925 
10.203320 46.515007 90.227043 -114.124507 -0.173768 90.869314 4.704052 8.284433 -1.225322 -3.626339 1.680761 17.375178 2.839319 13.960283 -26.448899 nan nan nan -13.346230 -10.620515 -17.786102 3.789181 -6.070804 10.999498 4.880820 -6.363272 0.114833 nan nan nan -0.823041 2.940081 5.138997 4.467185 -1.434718 15.428953 -1.531874 2.798171 -8.787324 5.473496 -18.699404 4.283313 2.252414 -9.565894 15.829752 -26.192757 -2.188131 12.249618 -49.821039 1.083233 17.757844 2.265621 -85.088203 19.691325 -16.116627 -7.956138 5.186480 25.318853 19.520744 8.709180 20.332341 31.844325 -10.344107 -26.819461 17.006495 -41.184917 1.712625 1.357269 -5.946286 
10.191012 46.595600 90.198616 -114.142498 -0.287978 91.054074 4.574883 8.231047 -1.289757 -3.554101 1.808817 17.170194 2.811414 13.937918 -26.398869 nan nan nan -13.263946 -10.664642 -17.738364 3.696099 -6.032683 10.582824 4.749206 -6.338523 -0.047732 nan nan nan -0.824546 2.960530 4.836809 4.427423 -1.464011 15.567945 -1.557085 2.817299 -8.888025 5.467712 -18.675246 4.335793 2.302782 -9.514335 15.923188 -26.262422 -2.106469 12.326417 -49.910012 0.917738 17.609558 4.421433 -85.081461 17.435678 -16.958417 -7.909926 5.554601 25.291180 19.505800 8.949280 20.391672 32.259842 -10.634877 -26.933000 16.507099 -40.991979 2.504341 1.290058 -5.139918 
10.181694 46.714756 90.166702 -114.174902 -0.339974 91.222889 4.559944 8.236216 -1.343219 -3.487707 1.938914 17.015983 2.733666 13.878790 -26.347993 nan nan nan -13.110762 -10.675832 -17.690641 3.598596 -6.062853 10.244714 4.601924 -6.243348 -0.192855 nan nan nan -0.821539 3.003414 4.523536 4.449978 -1.458828 15.660723 -1.524208 2.803621 -8.845155 5.509622 -18.567937 4.432207 2.406586 -9.585340 15.642069 -26.305187 -2.094479 12.216553 -50.081584 0.835273 17.569678 6.142446 -85.023597 15.626755 -17.411042 -7.961882 5.916301 25.290327 19.614609 8.964614 20.454019 32.628715 -10.777518 -26.998433 16.019484 -40.861831 2.925904 1.289709 -4.511772 
